<svg xmlns="http://www.w3.org/2000/svg" xmlns:svg="http://www.w3.org/2000/svg" id="svg2" width="64" height="64" version="1.1"><metadata id="metadata7"/><g id="layer1" transform="translate(0,-988.36218)"><path style="fill:#000;fill-opacity:.5;stroke:none" id="path3025" d="m 0,64 4,-4 56,0 4,4 z" transform="translate(0,988.36218)"/><path style="fill:#000;fill-opacity:.25;stroke:none" id="path3025-2" d="m 64,1052.3622 -4,-4 0,-56.00002 4,-4 z"/><path style="fill:#fff;fill-opacity:.5;stroke:none" id="path3025-0" d="m 64,988.36216 -4,4.00002 -56,0 -4,-4.00002 z"/><path style="fill:#fff;fill-opacity:.25;stroke:none" id="path3025-2-8" d="m 0,988.36216 4,4.00002 0,56.00002 -4,4 z"/><rect style="fill:gray;fill-opacity:.25;stroke:none" id="rect3834" width="56" height="56" x="4" y="4" transform="translate(0,988.36218)"/><path style="fill:#000;fill-opacity:.5;stroke:none" id="path3025-76" d="m 28,994.36218 -4,4.00002 -8,0 -4,-4.00002 z"/><path style="fill:#000;fill-opacity:.25;stroke:none" id="path3025-2-23" d="m 12,994.36218 4,3.99992 0,8.0001 -4,4 z"/><path style="fill:#fff;fill-opacity:.5;stroke:none" id="path3025-0-52" d="m 12,1010.3622 4,-4 8,0 4,4 z"/><path style="fill:#fff;fill-opacity:.25;stroke:none" id="path3025-2-8-5" d="m 28,1010.3622 -4,-4 0,-8 4,-4.00002 z"/><rect style="fill:#000;fill-opacity:.75;stroke:none" id="rect3935" width="8" height="8" x="16" y="1034.362"/><rect style="fill:#000;fill-opacity:.75;stroke:none" id="rect3935-6" width="8" height="8" x="16" y="1026.362"/><rect style="fill:#000;fill-opacity:.75;stroke:none" id="rect3935-7" width="8" height="8" x="24" y="1026.362"/><rect style="fill:#000;fill-opacity:.75;stroke:none" id="rect3935-8" width="8" height="8" x="24" y="1018.362"/><rect style="fill:#000;fill-opacity:.75;stroke:none" id="rect3935-9" width="8" height="8" x="32" y="1018.362"/><rect style="fill:#000;fill-opacity:.75;stroke:none" id="rect3935-5" width="8" height="8" x="32" y="1026.362"/><rect style="fill:#000;fill-opacity:.75;stroke:none" id="rect3935-63" width="8" height="8" x="40" y="1026.362"/><rect style="fill:#000;fill-opacity:.75;stroke:none" id="rect3935-0" width="8" height="8" x="40" y="1034.362"/><rect style="fill:#000;fill-opacity:.75;stroke:none" id="rect3935-54" width="8" height="8" x="16" y="998.362"/><rect style="fill:#000;fill-opacity:.75;stroke:none" id="rect3935-3" width="8" height="8" x="40" y="998.362"/><path style="fill:#000;fill-opacity:.5;stroke:none" id="path3025-9" d="m 52,994.36218 -4,4.00002 -8,0 -4,-4.00002 z"/><path style="fill:#000;fill-opacity:.25;stroke:none" id="path3025-2-3" d="m 36,994.36218 4,3.99992 0,8.0001 -4,4 z"/><path style="fill:#fff;fill-opacity:.5;stroke:none" id="path3025-0-5" d="m 36,1010.3622 4,-4 8,0 4,4 z"/><path style="fill:#fff;fill-opacity:.25;stroke:none" id="path3025-2-8-4" d="m 52,1010.3622 -4,-4 0,-8 4,-4.00002 z"/><path style="fill:#000;fill-opacity:.5;stroke:none" id="path3025-8" d="m 44,1014.3622 -4,4 -16,0 -4,-4 z"/><path style="fill:#000;fill-opacity:.25;stroke:none" id="path3025-2-2" d="m 20,1014.3622 4,3.9999 0,8.0001 -4,-4 z"/><path style="fill:#000;fill-opacity:.5;stroke:none" id="path3025-7" d="m 20,1022.3622 4,4 -8,0 -4,-4 z"/><path style="fill:#000;fill-opacity:.25;stroke:none" id="path3025-2-2-1" d="m 12,1022.3622 4,3.9999 0,16.0001 -4,4 z"/><path style="fill:#fff;fill-opacity:.5;stroke:none" id="path3025-0-2" d="m 12,1046.3622 4,-4 8,0 4,4 z"/><path style="fill:#fff;fill-opacity:.5;stroke:none" id="path3025-0-50" d="m 36,1046.3622 4,-4 8,0 4,4 z"/><path style="fill:#fff;fill-opacity:.25;stroke:none" id="path3025-2-8-4-9" d="m 44,1022.3622 -4,4 0,-8 4,-4 z"/><path style="fill:#fff;fill-opacity:.25;stroke:none" id="path3025-2-8-4-5" d="m 52,1046.3622 -4,-4 0,-16 4,-4 z"/><path style="fill:#fff;fill-opacity:.25;stroke:none" id="path3025-2-8-4-3" d="m 28,1046.3622 -4,-4 0,-8 4,4 z"/><path style="fill:#fff;fill-opacity:.5;stroke:none" id="path3025-0-2-4" d="m 28,1038.3622 -4,-4 16,0 -4,4 z"/><path style="fill:#000;fill-opacity:.25;stroke:none" id="path3025-2-2-8" d="m 36,1038.3622 4,-4 0,8.0001 -4,3.9999 z"/><path style="fill:#000;fill-opacity:.5;stroke:none" id="path3025-7-0" d="m 52,1022.3622 -4,4 -8,0 4,-4 z"/></g></svg>